<svg width="40" height="40" viewBox="0 0 40 40" fill="none" xmlns="http://www.w3.org/2000/svg">
<circle cx="20" cy="20" r="20" fill="#BE8661"/>
<path d="M20.0187 12.8127C16.05 12.8002 12.825 16.0127 12.8125 19.9814C12.8 23.9502 16.0125 27.1752 19.9813 27.1877C23.95 27.2002 27.175 23.9877 27.1875 20.0189C27.2 16.0502 23.9875 12.8252 20.0187 12.8127ZM19.9813 15.3377C22.5563 15.3252 24.65 17.4064 24.6625 19.9814C24.675 22.5564 22.5937 24.6502 20.0187 24.6627C17.4437 24.6752 15.35 22.5939 15.3375 20.0189C15.325 17.4439 17.4063 15.3502 19.9813 15.3377ZM25.8188 12.5189C25.8188 11.5939 26.5687 10.8439 27.4937 10.8439C28.4187 10.8439 29.1688 11.5939 29.1688 12.5189C29.1688 13.4439 28.4187 14.1939 27.4937 14.1939C26.5687 14.1939 25.8188 13.4439 25.8188 12.5189ZM33.925 14.2189C33.8187 11.9752 33.3063 9.9877 31.6625 8.3502C30.025 6.7127 28.0375 6.2002 25.7938 6.0877C23.4813 5.95645 16.55 5.95645 14.2375 6.0877C12 6.19395 10.0125 6.70645 8.36875 8.34395C6.725 9.98145 6.21875 11.9689 6.10625 14.2127C5.975 16.5252 5.975 23.4564 6.10625 25.7689C6.2125 28.0127 6.725 30.0002 8.36875 31.6377C10.0125 33.2752 11.9938 33.7877 14.2375 33.9002C16.55 34.0314 23.4813 34.0314 25.7938 33.9002C28.0375 33.7939 30.025 33.2814 31.6625 31.6377C33.3 30.0002 33.8125 28.0127 33.925 25.7689C34.0562 23.4564 34.0562 16.5314 33.925 14.2189ZM30.9375 28.2502C30.45 29.4752 29.5062 30.4189 28.275 30.9127C26.4312 31.6439 22.0562 31.4752 20.0187 31.4752C17.9812 31.4752 13.6 31.6377 11.7625 30.9127C10.5375 30.4252 9.59375 29.4814 9.1 28.2502C8.36875 26.4064 8.5375 22.0314 8.5375 19.9939C8.5375 17.9564 8.375 13.5752 9.1 11.7377C9.5875 10.5127 10.5312 9.56895 11.7625 9.0752C13.6062 8.34395 17.9812 8.5127 20.0187 8.5127C22.0562 8.5127 26.4375 8.3502 28.275 9.0752C29.5 9.5627 30.4437 10.5064 30.9375 11.7377C31.6687 13.5814 31.5 17.9564 31.5 19.9939C31.5 22.0314 31.6687 26.4127 30.9375 28.2502Z" fill="white"/>
</svg>
