<svg width="40" height="40" viewBox="0 0 40 40" fill="none" xmlns="http://www.w3.org/2000/svg">
<circle cx="20" cy="20" r="20" fill="#BE8661"/>
<path d="M34.0312 17.1187C31.2812 17.125 28.5938 16.2687 26.3563 14.6687V25.8375C26.3563 27.9062 25.725 29.925 24.5438 31.625C23.3625 33.325 21.6938 34.625 19.7563 35.35C17.8188 36.075 15.7062 36.1938 13.7 35.6813C11.6937 35.1688 9.89375 34.0625 8.53125 32.5062C7.16875 30.95 6.325 29.0063 6.09375 26.95C5.8625 24.8938 6.275 22.8188 7.25625 21C8.2375 19.1812 9.75625 17.7062 11.6062 16.7687C13.4562 15.8312 15.5375 15.4875 17.5875 15.7688V21.3875C16.65 21.0938 15.6437 21.1 14.7125 21.4125C13.7812 21.725 12.9687 22.325 12.4 23.1187C11.8312 23.9125 11.525 24.875 11.5312 25.8625C11.5375 26.85 11.8562 27.8 12.4375 28.5938C13.0188 29.3875 13.8375 29.975 14.775 30.275C15.7125 30.575 16.7187 30.575 17.65 30.2687C18.5812 29.9625 19.4 29.3688 19.975 28.575C20.55 27.7813 20.8625 26.8187 20.8625 25.8375V4H26.3625C26.3562 4.4625 26.4 4.93125 26.4813 5.3875C26.675 6.40625 27.0687 7.38125 27.65 8.24375C28.2312 9.10625 28.9813 9.84375 29.85 10.4062C31.0938 11.225 32.55 11.6625 34.0375 11.6625V17.125L34.0312 17.1187Z" fill="white"/>
</svg>
